<svg width="200" height="200" viewBox="0 0 200 200" xmlns="http://www.w3.org/2000/svg">
  <rect width="200" height="200" fill="#ffffff" stroke="#000000" stroke-width="2"/>
  <rect x="10" y="10" width="180" height="180" fill="#f0f0f0" stroke="#000000" stroke-width="1"/>

  <!-- QR Code pattern simulation -->
  <rect x="20" y="20" width="20" height="20" fill="#000000"/>
  <rect x="50" y="20" width="20" height="20" fill="#000000"/>
  <rect x="80" y="20" width="20" height="20" fill="#000000"/>
  <rect x="110" y="20" width="20" height="20" fill="#000000"/>
  <rect x="140" y="20" width="20" height="20" fill="#000000"/>
  <rect x="170" y="20" width="20" height="20" fill="#000000"/>

  <rect x="20" y="50" width="20" height="20" fill="#000000"/>
  <rect x="50" y="50" width="20" height="20" fill="#000000"/>
  <rect x="110" y="50" width="20" height="20" fill="#000000"/>
  <rect x="140" y="50" width="20" height="20" fill="#000000"/>
  <rect x="170" y="50" width="20" height="20" fill="#000000"/>

  <rect x="20" y="80" width="20" height="20" fill="#000000"/>
  <rect x="80" y="80" width="20" height="20" fill="#000000"/>
  <rect x="110" y="80" width="20" height="20" fill="#000000"/>
  <rect x="170" y="80" width="20" height="20" fill="#000000"/>

  <rect x="20" y="110" width="20" height="20" fill="#000000"/>
  <rect x="50" y="110" width="20" height="20" fill="#000000"/>
  <rect x="80" y="110" width="20" height="20" fill="#000000"/>
  <rect x="140" y="110" width="20" height="20" fill="#000000"/>
  <rect x="170" y="110" width="20" height="20" fill="#000000"/>

  <rect x="20" y="140" width="20" height="20" fill="#000000"/>
  <rect x="50" y="140" width="20" height="20" fill="#000000"/>
  <rect x="110" y="140" width="20" height="20" fill="#000000"/>
  <rect x="140" y="140" width="20" height="20" fill="#000000"/>
  <rect x="170" y="140" width="20" height="20" fill="#000000"/>

  <rect x="20" y="170" width="20" height="20" fill="#000000"/>
  <rect x="50" y="170" width="20" height="20" fill="#000000"/>
  <rect x="80" y="170" width="20" height="20" fill="#000000"/>
  <rect x="110" y="170" width="20" height="20" fill="#000000"/>
  <rect x="140" y="170" width="20" height="20" fill="#000000"/>
  <rect x="170" y="170" width="20" height="20" fill="#000000"/>

  <!-- Center positioning squares -->
  <rect x="80" y="80" width="40" height="40" fill="#ffffff" stroke="#000000" stroke-width="2"/>
  <rect x="85" y="85" width="30" height="30" fill="#000000"/>

  <!-- Text overlay -->
  <text x="100" y="190" text-anchor="middle" font-family="Arial" font-size="12" fill="#000000">smitbahadure90@oksbi</text>
</svg>
